<?xml version="1.0" encoding="UTF-8"?>
<svg version="1.1" xmlns="http://www.w3.org/2000/svg" width="691" height="361">
<path d="M0 0 C0.763125 0.53625 1.52625 1.0725 2.3125 1.625 C4.22232821 2.67869833 6.03692518 3.54262387 8.12890625 4.16796875 C14.62167108 6.20080783 18.12531281 9.8010922 21.4765625 15.66015625 C22.3125 17.625 22.3125 17.625 22.3125 20.625 C23.18261719 20.42970703 23.18261719 20.42970703 24.0703125 20.23046875 C28.65372023 19.42118719 30.57127552 19.14949751 34.625 21.75 C37.3125 24.625 37.3125 24.625 38.99609375 27.22265625 C42.05018299 30.39005066 44.87245456 30.60879133 49.0625 30.9375 C49.75988281 31.01033203 50.45726562 31.08316406 51.17578125 31.15820312 C52.88607353 31.33391809 54.59914382 31.48222032 56.3125 31.625 C57.86447152 35.79225169 58.56344006 39.35127302 58.73046875 43.78515625 C59.23196324 52.12482383 60.66688979 60.21671013 62.1506958 68.43026733 C64.79231245 83.09037291 67.10483088 97.72665105 68.8828125 112.5168457 C69.68139739 119.04918332 70.58976866 125.54157485 71.69921875 132.02734375 C71.87686768 133.06640114 71.87686768 133.06640114 72.05810547 134.12644958 C72.63149864 137.45364276 73.22105708 140.77684336 73.82666016 144.09838867 C74.03468262 145.27506104 74.24270508 146.4517334 74.45703125 147.6640625 C74.64628174 148.69740723 74.83553223 149.73075195 75.03051758 150.79541016 C75.31714728 153.67163375 75.03654375 155.84188697 74.3125 158.625 C73.65991211 158.75028076 73.00732422 158.87556152 72.33496094 159.00463867 C69.24301948 159.60163788 66.15257715 160.20592351 63.0625 160.8125 C61.92820557 161.03446045 60.79391113 161.2564209 59.62524414 161.48510742 C53.42512856 162.72234729 47.31275183 164.09838273 41.21508789 165.76733398 C25.41183158 170.06365354 12.30209566 168.71583774 -3.48046875 165.32421875 C-15.66164428 162.738794 -27.93717934 160.62290623 -40.19088745 158.4133606 C-72.78208417 152.53041583 -72.78208417 152.53041583 -74.6875 150.625 C-74.4966828 141.99516553 -73.1600365 133.44732014 -71.8125 124.9375 C-70.43235553 115.93168367 -69.19587635 106.93003719 -68.1875 97.875 C-67.14772856 88.57822008 -66.06146664 79.28950317 -64.88623047 70.00891113 C-64.71410019 68.64401456 -64.5439665 67.27886449 -64.37597656 65.91345215 C-62.61945384 51.6611044 -62.61945384 51.6611044 -60.6875 46.625 C-55.32462515 42.92206261 -48.18938086 41.21863245 -41.6875 41.625 C-41.53293335 40.79730103 -41.53293335 40.79730103 -41.37524414 39.95288086 C-38.57471753 26.10019726 -31.96423749 12.63260745 -20.515625 3.984375 C-18.61349274 2.74012307 -16.71459078 1.64973242 -14.6875 0.625 C-13.841875 0.191875 -12.99625 -0.24125 -12.125 -0.6875 C-7.7281462 -1.92763825 -4.10926469 -2.10241449 0 0 Z M-20.6875 12.625 C-20.6875 13.285 -20.6875 13.945 -20.6875 14.625 C-21.3475 14.625 -22.0075 14.625 -22.6875 14.625 C-29.37075284 25.44638754 -29.37075284 25.44638754 -32.6875 37.625 C-28.68909428 37.20485229 -25.27292744 36.48354784 -21.6875 34.625 C-19.22551482 30.88120143 -18.03070664 26.8757905 -16.6875 22.625 C-14.43558351 17.26245957 -12.01270866 13.6175003 -7.6875 9.625 C-6.65936389 8.31324014 -5.64665568 6.9880107 -4.6875 5.625 C-10.91847328 5.625 -16.16990507 8.45491238 -20.6875 12.625 Z M8.3125 11.625 C8.6425 15.915 8.9725 20.205 9.3125 24.625 C11.6225 23.965 13.9325 23.305 16.3125 22.625 C14.55538287 18.05649547 13.16074051 14.8318671 9.3125 11.625 C8.9825 11.625 8.6525 11.625 8.3125 11.625 Z M-4.95703125 15.72265625 C-8.46740302 19.58168797 -13.6875 26.25608533 -13.6875 31.625 C-7.62017948 30.58732949 -2.2501148 29.28538099 3.3125 26.625 C3.17116501 24.85380197 3.02426792 23.08304713 2.875 21.3125 C2.79378906 20.32636719 2.71257812 19.34023437 2.62890625 18.32421875 C2.39437441 15.53124401 2.39437441 15.53124401 1.3125 12.625 C-1.47894647 12.625 -2.89233615 13.96384191 -4.95703125 15.72265625 Z " fill="#93BF3E" transform="translate(193.6875,57.375)"/>
<path d="M0 0 C0.763125 0.53625 1.52625 1.0725 2.3125 1.625 C4.22232821 2.67869833 6.03692518 3.54262387 8.12890625 4.16796875 C14.62167108 6.20080783 18.12531281 9.8010922 21.4765625 15.66015625 C22.3125 17.625 22.3125 17.625 22.3125 20.625 C23.18261719 20.42970703 23.18261719 20.42970703 24.0703125 20.23046875 C28.65372023 19.42118719 30.57127552 19.14949751 34.625 21.75 C37.3125 24.625 37.3125 24.625 38.99609375 27.22265625 C42.05018299 30.39005066 44.87245456 30.60879133 49.0625 30.9375 C49.75988281 31.01033203 50.45726562 31.08316406 51.17578125 31.15820312 C52.88607353 31.33391809 54.59914382 31.48222032 56.3125 31.625 C57.86447152 35.79225169 58.56344006 39.35127302 58.73046875 43.78515625 C59.23196324 52.12482383 60.66688979 60.21671013 62.1506958 68.43026733 C64.79231245 83.09037291 67.10483088 97.72665105 68.8828125 112.5168457 C69.68139739 119.04918332 70.58976866 125.54157485 71.69921875 132.02734375 C71.81765137 132.72004868 71.93608398 133.4127536 72.05810547 134.12644958 C72.63149864 137.45364276 73.22105708 140.77684336 73.82666016 144.09838867 C74.13869385 145.86339722 74.13869385 145.86339722 74.45703125 147.6640625 C74.64628174 148.69740723 74.83553223 149.73075195 75.03051758 150.79541016 C75.31714728 153.67163375 75.03654375 155.84188697 74.3125 158.625 C73.65991211 158.75028076 73.00732422 158.87556152 72.33496094 159.00463867 C69.24301948 159.60163788 66.15257715 160.20592351 63.0625 160.8125 C61.92820557 161.03446045 60.79391113 161.2564209 59.62524414 161.48510742 C53.42408273 162.72255599 47.31128024 164.1011072 41.21166992 165.76660156 C27.91885952 169.38939666 15.86893546 169.8417813 2.3125 166.625 C2.3125 166.295 2.3125 165.965 2.3125 165.625 C4.7502963 165.57102665 7.18689685 165.53134384 9.625 165.5 C10.31529297 165.48324219 11.00558594 165.46648437 11.71679688 165.44921875 C15.48385396 165.41282206 17.09681704 165.48121136 20.3125 167.625 C20.38597656 165.85382813 20.38597656 165.85382813 20.4609375 164.046875 C20.53598879 162.48956063 20.61153561 160.93227009 20.6875 159.375 C20.7184375 158.59769531 20.749375 157.82039062 20.78125 157.01953125 C20.81992188 156.26542969 20.85859375 155.51132813 20.8984375 154.734375 C20.94556885 153.69748535 20.94556885 153.69748535 20.99365234 152.63964844 C21.3125 150.625 21.3125 150.625 22.30553246 148.75590801 C23.36824811 146.50702788 23.61958401 144.9832231 23.74282837 142.51582336 C23.78764847 141.7050383 23.83246857 140.89425323 23.87864685 140.05889893 C23.91820999 139.1774823 23.95777313 138.29606567 23.99853516 137.38793945 C24.04759506 136.45215561 24.09665497 135.51637177 24.14720154 134.55223083 C24.30754407 131.44796005 24.45482613 128.34322275 24.6015625 125.23828125 C24.71020042 123.06183394 24.81945316 120.88541724 24.92929077 118.70903015 C25.15840173 114.13025307 25.38128804 109.55122777 25.59960938 104.97192383 C25.8762311 99.17613106 26.16597522 93.38109303 26.4603672 87.58617878 C26.68821727 83.07747755 26.90975374 78.5684821 27.12946701 74.05937767 C27.23385351 71.92802998 27.3398491 69.79676033 27.44765091 67.66558266 C28.21855038 52.30879978 28.44315353 37.00049633 28.3125 21.625 C25.3425 21.625 22.3725 21.625 19.3125 21.625 C18.6525 23.275 17.9925 24.925 17.3125 26.625 C15.3325 26.295 13.3525 25.965 11.3125 25.625 C11.3125 26.615 11.3125 27.605 11.3125 28.625 C10.6525 28.625 9.9925 28.625 9.3125 28.625 C8.9825 29.285 8.6525 29.945 8.3125 30.625 C7.4683062 26.64522924 6.86562735 22.65492782 6.3125 18.625 C4.87005249 19.8474093 4.87005249 19.8474093 5.0625 23.5 C4.83203125 25.6796875 4.83203125 25.6796875 4.3125 27.625 C1.75 29.625 1.75 29.625 -0.6875 30.625 C-1.6775 29.965 -2.6675 29.305 -3.6875 28.625 C-1.3775 27.965 0.9325 27.305 3.3125 26.625 C3.168125 25.86574219 3.02375 25.10648438 2.875 24.32421875 C2.5965625 22.83341797 2.5965625 22.83341797 2.3125 21.3125 C2.126875 20.32636719 1.94125 19.34023437 1.75 18.32421875 C1.3125 15.625 1.3125 15.625 1.3125 12.625 C-5.1658008 16.51198048 -8.17591422 21.00057994 -11.6875 27.625 C-12.3475 27.295 -13.0075 26.965 -13.6875 26.625 C-13.6875 25.635 -13.6875 24.645 -13.6875 23.625 C-15.98892435 25.40674788 -17.48784391 26.78804165 -18.17578125 29.671875 C-18.41073102 31.6496611 -18.55501458 33.63771872 -18.6875 35.625 C-20.6675 35.625 -22.6475 35.625 -24.6875 35.625 C-23.6975 34.965 -22.7075 34.305 -21.6875 33.625 C-20.59173756 31.25759662 -20.59173756 31.25759662 -19.75 28.5 C-16.77745312 19.86492084 -13.51026848 11.93330718 -5.6875 6.625 C-11.58846232 6.98628341 -15.28579511 8.63362354 -19.6875 12.625 C-20.0175 13.285 -20.3475 13.945 -20.6875 14.625 C-21.3475 14.625 -22.0075 14.625 -22.6875 14.625 C-22.955625 15.32753906 -23.22375 16.03007813 -23.5 16.75390625 C-25.18237935 20.82150106 -27.23219368 24.68034401 -29.25 28.58984375 C-30.6543372 31.55497962 -31.71699477 34.49418744 -32.6875 37.625 C-32.0275 37.955 -31.3675 38.285 -30.6875 38.625 C-32.0075 38.295 -33.3275 37.965 -34.6875 37.625 C-35.0175 38.615 -35.3475 39.605 -35.6875 40.625 C-40.04327894 44.30018848 -44.29178932 43.94239475 -49.6875 43.625 C-46.45958445 41.4730563 -45.40349191 41.42413557 -41.6875 41.625 C-41.58445557 41.07320068 -41.48141113 40.52140137 -41.37524414 39.95288086 C-38.57471753 26.10019726 -31.96423749 12.63260745 -20.515625 3.984375 C-18.61349274 2.74012307 -16.71459078 1.64973242 -14.6875 0.625 C-13.841875 0.191875 -12.99625 -0.24125 -12.125 -0.6875 C-7.7281462 -1.92763825 -4.10926469 -2.10241449 0 0 Z M8.3125 11.625 C8.6425 15.915 8.9725 20.205 9.3125 24.625 C11.6225 23.965 13.9325 23.305 16.3125 22.625 C14.55538287 18.05649547 13.16074051 14.8318671 9.3125 11.625 C8.9825 11.625 8.6525 11.625 8.3125 11.625 Z " fill="#5B8C36" transform="translate(193.6875,57.375)"/>
<path d="M0 0 C5.40473417 -0.1263099 10.0158947 -0.12444611 15.05078125 2.11328125 C14.28993537 6.30193806 13.17255427 10.3381292 11.98828125 14.42578125 C11.62605469 15.68003906 11.26382813 16.93429688 10.890625 18.2265625 C10.61347656 19.17917969 10.33632812 20.13179687 10.05078125 21.11328125 C9.03371094 20.95214844 8.01664063 20.79101562 6.96875 20.625 C3.38702489 20.15719742 -0.0283681 19.94713244 -3.63671875 19.92578125 C-4.73371094 19.91160156 -5.83070313 19.89742187 -6.9609375 19.8828125 C-9.86436938 20.10673731 -11.49785642 20.60429178 -13.94921875 22.11328125 C-13.85306685 26.82472418 -13.2535361 29.23881204 -9.88671875 32.61328125 C-8.59289076 33.80062134 -7.27928054 34.96667626 -5.94921875 36.11328125 C-4.90894531 37.01433594 -4.90894531 37.01433594 -3.84765625 37.93359375 C-2.47935486 39.11740506 -1.11087149 40.30100606 0.2578125 41.484375 C4.90627004 45.70748349 7.80829274 49.63479343 8.421875 55.90625 C8.68692952 65.38356544 8.33602275 72.39244292 1.62890625 79.65234375 C-4.96094492 85.71075531 -11.17050695 86.63119116 -19.80859375 86.39453125 C-27.94372411 85.66601211 -34.16370874 81.40984394 -40.94921875 77.11328125 C-40.27506488 71.85488105 -38.70656326 67.08689779 -36.94921875 62.11328125 C-34.01707892 62.71346339 -32.75691326 63.25639231 -30.26171875 65.11328125 C-26.18691192 67.57354198 -22.67517892 68.15829039 -17.94921875 68.11328125 C-16.46421875 67.61828125 -16.46421875 67.61828125 -14.94921875 67.11328125 C-14.01479494 63.50337045 -13.92945481 60.71770032 -14.94921875 57.11328125 C-17.25928533 54.17937564 -20.08084907 51.83131135 -22.97338867 49.48925781 C-28.20608768 45.22563148 -31.46870317 41.41329264 -32.48046875 34.46484375 C-32.41650343 26.83697914 -32.17097231 20.6113408 -27.94921875 14.11328125 C-27.54832031 13.49066406 -27.14742187 12.86804688 -26.734375 12.2265625 C-22.14652683 6.0961335 -14.63283219 1.38383484 -7.01171875 0.23828125 C-4.67535269 0.10821551 -2.33890265 0.08983864 0 0 Z " fill="#FBFDF7" transform="translate(182.94921875,114.88671875)"/>
<path d="M0 0 C1.91288407 -0.01657161 3.82570592 -0.04387757 5.73828125 -0.08203125 C8.48974875 -0.13667099 11.239763 -0.15865287 13.99169922 -0.17333984 C14.84802948 -0.19600922 15.70435974 -0.21867859 16.5866394 -0.24203491 C18.83459022 -0.23400013 20.81631932 -0.1863706 22.99951172 0.35009766 C26.25089766 4.20666713 26.9350051 8.51887532 27.99951172 13.35009766 C29.64951172 9.06009766 31.29951172 4.77009766 32.99951172 0.35009766 C36.29951172 0.35009766 39.59951172 0.35009766 42.99951172 0.35009766 C44.26577954 5.41516895 42.60668377 7.54134011 40.12451172 11.78759766 C39.3710099 13.09529621 38.62344108 14.40643428 37.88232422 15.72119141 C37.54604004 16.29796631 37.20975586 16.87474121 36.86328125 17.46899414 C35.14028103 21.22131655 34.86736295 25.13339174 34.68310547 29.21337891 C34.62026367 30.54272461 34.62026367 30.54272461 34.55615234 31.89892578 C34.51683594 32.8109375 34.47751953 33.72294922 34.43701172 34.66259766 C34.37223633 36.05961914 34.37223633 36.05961914 34.30615234 37.48486328 C34.20054048 39.77312042 34.09956737 42.06159083 33.99951172 44.35009766 C28.71951172 44.35009766 23.43951172 44.35009766 17.99951172 44.35009766 C17.98533203 43.05716797 17.97115234 41.76423828 17.95654297 40.43212891 C17.64572662 26.87374511 15.13006875 17.50365809 8.99951172 5.35009766 C8.66951172 6.34009766 8.33951172 7.33009766 7.99951172 8.35009766 C4.69951172 8.35009766 1.39951172 8.35009766 -2.00048828 8.35009766 C-2.00048828 11.65009766 -2.00048828 14.95009766 -2.00048828 18.35009766 C0.96951172 18.35009766 3.93951172 18.35009766 6.99951172 18.35009766 C6.99951172 20.66009766 6.99951172 22.97009766 6.99951172 25.35009766 C4.02951172 25.68009766 1.05951172 26.01009766 -2.00048828 26.35009766 C-2.00048828 29.65009766 -2.00048828 32.95009766 -2.00048828 36.35009766 C1.62951172 36.68009766 5.25951172 37.01009766 8.99951172 37.35009766 C8.99951172 39.66009766 8.99951172 41.97009766 8.99951172 44.35009766 C0.08951172 44.35009766 -8.82048828 44.35009766 -18.00048828 44.35009766 C-18.02339381 38.2445011 -18.04332195 32.13905249 -18.05541992 26.03344727 C-18.06046117 23.9546661 -18.06729402 21.87588849 -18.07592773 19.79711914 C-18.0880025 16.8160718 -18.09371852 13.83507116 -18.09814453 10.85400391 C-18.10588646 9.45088707 -18.10588646 9.45088707 -18.11378479 8.01942444 C-18.11386032 7.15860764 -18.11393585 6.29779083 -18.11401367 5.41088867 C-18.11623428 4.6492189 -18.1184549 3.88754913 -18.1207428 3.10279846 C-17.76961409 -2.01487683 -4.16906611 0.02651804 0 0 Z " fill="#DDDDDD" transform="translate(441.00048828125,171.64990234375)"/>
<path d="M0 0 C1.40765625 -0.00386719 1.40765625 -0.00386719 2.84375 -0.0078125 C5.30698377 0.11534919 7.19434386 0.27182241 9.5 1.125 C10.60480401 3.81405127 11.43854924 6.27621051 12.1875 9.0625 C12.60703766 10.53024423 13.0275662 11.99770569 13.44921875 13.46484375 C13.79597656 14.67269531 14.14273437 15.88054687 14.5 17.125 C14.83 17.785 15.16 18.445 15.5 19.125 C17.15 13.185 18.8 7.245 20.5 1.125 C24.31161723 0.36267655 27.25466762 -0.01059202 31.0625 0 C32.45662109 -0.00386719 32.45662109 -0.00386719 33.87890625 -0.0078125 C36.25286528 0.11247753 38.21775575 0.51385256 40.5 1.125 C40.52464638 6.94571622 40.5428343 12.76640234 40.55493164 18.5871582 C40.55997267 20.56893441 40.56680538 22.55070689 40.57543945 24.5324707 C40.58751515 27.37452109 40.59323045 30.21652247 40.59765625 33.05859375 C40.60281754 33.95025742 40.60797882 34.84192108 40.61329651 35.76060486 C40.61349177 37.88240601 40.5621003 40.0041078 40.5 42.125 C39.5 43.125 39.5 43.125 36.33984375 43.22265625 C30.91992188 43.17382812 30.91992188 43.17382812 25.5 43.125 C25.17 35.535 24.84 27.945 24.5 20.125 C22.16124423 26.41544656 19.96112037 32.67695402 18.11328125 39.12890625 C17.5 41.125 17.5 41.125 16.5 43.125 C13.53 43.125 10.56 43.125 7.5 43.125 C4.74334756 36.54821498 2.45931288 29.98259508 0.5 23.125 C0.17 29.725 -0.16 36.325 -0.5 43.125 C-3.47 43.125 -6.44 43.125 -9.5 43.125 C-9.5 29.265 -9.5 15.405 -9.5 1.125 C-6.04232972 0.26058243 -3.51002286 -0.00964292 0 0 Z " fill="#88B03C" transform="translate(402.5,112.875)"/>
<path d="M0 0 C1.58206057 0.00667536 3.16410534 0.0186375 4.74609375 0.03515625 C5.55240234 0.03966797 6.35871094 0.04417969 7.18945312 0.04882812 C9.18753131 0.06065107 11.18557158 0.07858711 13.18359375 0.09765625 C14.99725983 4.20761663 16.62711391 8.21084538 17.87109375 12.53515625 C18.12246094 13.40011719 18.37382812 14.26507813 18.6328125 15.15625 C18.81457031 15.79691406 18.99632812 16.43757813 19.18359375 17.09765625 C19.84359375 17.09765625 20.50359375 17.09765625 21.18359375 17.09765625 C21.46074219 15.95425781 21.73789062 14.81085938 22.0234375 13.6328125 C22.38913753 12.1418816 22.75503304 10.65099864 23.12109375 9.16015625 C23.30349609 8.40541016 23.48589844 7.65066406 23.67382812 6.87304688 C25.0703125 1.2109375 25.0703125 1.2109375 26.18359375 0.09765625 C32.12359375 0.09765625 38.06359375 0.09765625 44.18359375 0.09765625 C44.18359375 14.61765625 44.18359375 29.13765625 44.18359375 44.09765625 C39.56359375 44.09765625 34.94359375 44.09765625 30.18359375 44.09765625 C29.68859375 31.72265625 29.68859375 31.72265625 29.18359375 19.09765625 C26.92295589 26.57630955 26.92295589 26.57630955 24.66625977 34.05615234 C24.38451904 34.98508301 24.10277832 35.91401367 23.8125 36.87109375 C23.38046265 38.30074463 23.38046265 38.30074463 22.93969727 39.75927734 C22.18359375 42.09765625 22.18359375 42.09765625 21.18359375 44.09765625 C18.21359375 44.09765625 15.24359375 44.09765625 12.18359375 44.09765625 C11.20068805 41.20304406 10.22215674 38.30707546 9.24609375 35.41015625 C8.96830078 34.59353516 8.69050781 33.77691406 8.40429688 32.93554688 C8.13681641 32.13955078 7.86933594 31.34355469 7.59375 30.5234375 C7.34761963 29.79552002 7.10148926 29.06760254 6.84790039 28.31762695 C6.13986446 25.95152233 5.66795558 23.5194654 5.18359375 21.09765625 C4.85359375 28.68765625 4.52359375 36.27765625 4.18359375 44.09765625 C1.21359375 44.09765625 -1.75640625 44.09765625 -4.81640625 44.09765625 C-4.84105138 37.99210915 -4.85923996 31.88659074 -4.87133789 25.78100586 C-4.87637913 23.70222469 -4.88321199 21.62344709 -4.8918457 19.54467773 C-4.90392047 16.56363039 -4.90963649 13.58262976 -4.9140625 10.6015625 C-4.92180443 9.19844566 -4.92180443 9.19844566 -4.92970276 7.76698303 C-4.92977829 6.90616623 -4.92985382 6.04534943 -4.92993164 5.15844727 C-4.93215225 4.3967775 -4.93437286 3.63510773 -4.93666077 2.85035706 C-4.70032787 -0.59417762 -3.57378835 0.09144801 0 0 Z " fill="#E6E6E6" transform="translate(289.81640625,171.90234375)"/>
<path d="M0 0 C3.67391038 2.69919946 6.31901392 5.44280708 7.3359375 10.03515625 C8.35325179 18.53332714 9.36350249 28.66605155 4.72265625 36.265625 C1.16349036 40.7291011 -2.25958274 42.93041283 -7.921875 43.87109375 C-14.66004407 44.11966031 -20.37659561 43.90883468 -25.8359375 39.67578125 C-30.95321224 34.66945014 -32.93000195 27.3420809 -33.71484375 20.390625 C-33.42448504 13.80476158 -30.95758048 7.44539156 -26.96484375 2.265625 C-18.87323531 -3.7560371 -8.99046064 -5.24289696 0 0 Z M-13.27734375 4.265625 C-18.74029971 10.67866025 -17.78124219 19.26513216 -17.27734375 27.265625 C-16.65244833 30.44181759 -15.95910707 33.4765278 -14.27734375 36.265625 C-13.28734375 36.595625 -12.29734375 36.925625 -11.27734375 37.265625 C-6.17730525 27.95251121 -6.48104336 18.28347889 -8.44921875 8.078125 C-9.55153933 5.66549883 -10.86287772 5.20785564 -13.27734375 4.265625 Z " fill="#E5E5E5" transform="translate(370.27734375,173.734375)"/>
<path d="M0 0 C5.28 0 10.56 0 16 0 C19.51834718 5.86391197 22.23323147 11.34430472 24.25390625 17.8515625 C25.00524169 20.01509387 25.95918846 21.96315447 27 24 C27.02505615 23.30849854 27.0501123 22.61699707 27.07592773 21.90454102 C27.19152161 18.79032134 27.31441242 15.67643211 27.4375 12.5625 C27.47681641 11.47388672 27.51613281 10.38527344 27.55664062 9.26367188 C27.59853516 8.22919922 27.64042969 7.19472656 27.68359375 6.12890625 C27.72025146 5.17056885 27.75690918 4.21223145 27.79467773 3.22485352 C28 1 28 1 29 0 C31.64 0 34.28 0 37 0 C37 14.52 37 29.04 37 44 C31.39 44 25.78 44 20 44 C15.6877071 35.62420032 12.24950622 27.93614211 9 19 C8.67 27.25 8.34 35.5 8 44 C5.36 44 2.72 44 0 44 C0 29.48 0 14.96 0 0 Z " fill="#E2E2E2" transform="translate(382,172)"/>
<path d="M0 0 C5.43403249 6.6119297 5.62668215 14.83075059 5 23 C3.71080085 29.16161358 1.5906689 34.35698948 -3.61328125 38.1875 C-9.40371808 41.64018283 -15.41826561 42.12371075 -22 41 C-27.98454615 38.56245143 -32.00576254 35.80364545 -35 30 C-37.19491315 21.81896008 -36.92502767 11.93936083 -34 4 C-30.28467556 -0.51863784 -26.47452593 -3.42895556 -20.75 -4.75 C-13.25889994 -5.24940667 -6.18055681 -4.65639235 0 0 Z M-17 1 C-19.98207744 6.806373 -20.46200955 11.52262235 -20.375 18 C-20.38660156 18.86367187 -20.39820313 19.72734375 -20.41015625 20.6171875 C-20.38485187 26.16728217 -19.53832074 30.0576612 -17 35 C-14.98567734 34.49743888 -14.98567734 34.49743888 -13 33 C-11.17959426 27.96524145 -10.68846231 23.35377878 -10.75 18 C-10.74226563 17.32710937 -10.73453125 16.65421875 -10.7265625 15.9609375 C-10.74478242 11.24197869 -11.40976574 7.3981654 -13 3 C-14.98567734 1.50256112 -14.98567734 1.50256112 -17 1 Z " fill="#8EB93F" transform="translate(385,117)"/>
<path d="M0 0 C0.35688621 3.78299385 0.52053657 6.15412807 -1.5 9.4375 C-5.13646461 11.71029038 -7.75782535 11.28281164 -12 11 C-13.44197868 8.11604263 -13.58833581 5.17569521 -14 2 C-15.32 1.67 -16.64 1.34 -18 1 C-19.14926356 5.13700334 -19.22083647 9.16868867 -19.25 13.4375 C-19.270625 14.18837891 -19.29125 14.93925781 -19.3125 15.71289062 C-19.34465288 20.28261844 -19.01912898 23.32176539 -16 27 C-13.1403994 28.17110449 -13.1403994 28.17110449 -10 28 C-8.32260138 27.01810813 -6.65532623 26.01866229 -5 25 C-2.1875 25.3125 -2.1875 25.3125 0 26 C0.42455919 30.33050371 0.53642731 32.31030775 -2.1875 35.8125 C-7.53931 39.97501889 -12.27970635 40.4931274 -18.91796875 40.38671875 C-24.41449795 39.69704018 -28.91116066 37.31533999 -32.62109375 33.203125 C-37.4488681 25.48962716 -37.25497947 14.83009449 -35.3828125 6.1328125 C-33.50131639 1.1876413 -30.78816572 -1.63943058 -26.13671875 -4.1328125 C-17.34486372 -7.70098767 -6.85815584 -6.85815584 0 0 Z " fill="#8FB83F" transform="translate(348,118)"/>
<path d="M0 0 C1.27746094 -0.00257812 2.55492187 -0.00515625 3.87109375 -0.0078125 C7.2017337 0.11202005 10.29614456 0.48889369 13.5625 1.125 C13.5625 3.105 13.5625 5.085 13.5625 7.125 C9.9325 7.125 6.3025 7.125 2.5625 7.125 C2.5625 10.755 2.5625 14.385 2.5625 18.125 C5.5325 18.125 8.5025 18.125 11.5625 18.125 C11.5625 20.435 11.5625 22.745 11.5625 25.125 C8.5925 25.125 5.6225 25.125 2.5625 25.125 C2.5625 28.755 2.5625 32.385 2.5625 36.125 C5.2540625 36.0940625 5.2540625 36.0940625 8 36.0625 C9.85416122 36.0411878 11.70962498 36.05273498 13.5625 36.125 C14.5625 37.125 14.5625 37.125 14.5625 43.125 C5.6525 43.125 -3.2575 43.125 -12.4375 43.125 C-12.4375 29.265 -12.4375 15.405 -12.4375 1.125 C-8.05747755 0.24899551 -4.43337163 -0.00892925 0 0 Z " fill="#90BB40" transform="translate(297.4375,112.875)"/>
<path d="M0 0 C0.763125 0.53625 1.52625 1.0725 2.3125 1.625 C4.51758434 2.79645105 6.56233584 3.70827861 8.9375 4.5 C11.71169994 5.81409471 12.27618671 6.79869103 13.3125 9.625 C11.6625 9.955 10.0125 10.285 8.3125 10.625 C8.62237617 12.87536286 8.93549818 15.12527894 9.25 17.375 C9.42402344 18.62796875 9.59804687 19.8809375 9.77734375 21.171875 C10.17299338 23.72482593 10.61696422 26.1436291 11.3125 28.625 C10.6525 28.625 9.9925 28.625 9.3125 28.625 C8.9825 29.285 8.6525 29.945 8.3125 30.625 C7.4683062 26.64522924 6.86562735 22.65492782 6.3125 18.625 C4.87005249 19.8474093 4.87005249 19.8474093 5.0625 23.5 C4.83203125 25.6796875 4.83203125 25.6796875 4.3125 27.625 C1.75 29.625 1.75 29.625 -0.6875 30.625 C-1.6775 29.965 -2.6675 29.305 -3.6875 28.625 C-1.3775 27.965 0.9325 27.305 3.3125 26.625 C3.168125 25.86574219 3.02375 25.10648438 2.875 24.32421875 C2.5965625 22.83341797 2.5965625 22.83341797 2.3125 21.3125 C2.126875 20.32636719 1.94125 19.34023437 1.75 18.32421875 C1.3125 15.625 1.3125 15.625 1.3125 12.625 C-5.1658008 16.51198048 -8.17591422 21.00057994 -11.6875 27.625 C-12.3475 27.295 -13.0075 26.965 -13.6875 26.625 C-13.6875 25.635 -13.6875 24.645 -13.6875 23.625 C-15.98892435 25.40674788 -17.48784391 26.78804165 -18.17578125 29.671875 C-18.41073102 31.6496611 -18.55501458 33.63771872 -18.6875 35.625 C-20.6675 35.625 -22.6475 35.625 -24.6875 35.625 C-23.6975 34.965 -22.7075 34.305 -21.6875 33.625 C-20.59173756 31.25759662 -20.59173756 31.25759662 -19.75 28.5 C-16.77745312 19.86492084 -13.51026848 11.93330718 -5.6875 6.625 C-11.58846232 6.98628341 -15.28579511 8.63362354 -19.6875 12.625 C-20.0175 13.285 -20.3475 13.945 -20.6875 14.625 C-21.3475 14.625 -22.0075 14.625 -22.6875 14.625 C-22.955625 15.32753906 -23.22375 16.03007813 -23.5 16.75390625 C-25.18237935 20.82150106 -27.23219368 24.68034401 -29.25 28.58984375 C-30.6543372 31.55497962 -31.71699477 34.49418744 -32.6875 37.625 C-32.0275 37.955 -31.3675 38.285 -30.6875 38.625 C-32.0075 38.295 -33.3275 37.965 -34.6875 37.625 C-35.0175 38.615 -35.3475 39.605 -35.6875 40.625 C-40.04327894 44.30018848 -44.29178932 43.94239475 -49.6875 43.625 C-46.45958445 41.4730563 -45.40349191 41.42413557 -41.6875 41.625 C-41.58445557 41.07320068 -41.48141113 40.52140137 -41.37524414 39.95288086 C-38.57471753 26.10019726 -31.96423749 12.63260745 -20.515625 3.984375 C-18.61349274 2.74012307 -16.71459078 1.64973242 -14.6875 0.625 C-13.841875 0.191875 -12.99625 -0.24125 -12.125 -0.6875 C-7.7281462 -1.92763825 -4.10926469 -2.10241449 0 0 Z " fill="#668130" transform="translate(193.6875,57.375)"/>
<path d="M0 0 C1.42119141 -0.00386719 1.42119141 -0.00386719 2.87109375 -0.0078125 C5.28981396 0.11154379 7.28745423 0.30619082 9.5625 1.125 C10.88479189 3.76958379 10.65927194 5.80261301 10.625 8.75 C10.61597656 9.75289062 10.60695313 10.75578125 10.59765625 11.7890625 C10.58605469 12.55992188 10.57445312 13.33078125 10.5625 14.125 C9.9025 14.125 9.2425 14.125 8.5625 14.125 C8.2325 14.785 7.9025 15.445 7.5625 16.125 C7.2325 15.465 6.9025 14.805 6.5625 14.125 C5.2425 14.125 3.9225 14.125 2.5625 14.125 C1.9025 15.445 1.2425 16.765 0.5625 18.125 C0.2325 18.125 -0.0975 18.125 -0.4375 18.125 C-0.7675 26.045 -1.0975 33.965 -1.4375 42.125 C-3.7475 42.125 -6.0575 42.125 -8.4375 42.125 C-8.4375 28.595 -8.4375 15.065 -8.4375 1.125 C-5.36792902 0.10180967 -3.21309677 -0.00871939 0 0 Z " fill="#8EB443" transform="translate(402.4375,112.875)"/>
<path d="M0 0 C1.63001953 0.02707031 1.63001953 0.02707031 3.29296875 0.0546875 C4.54013672 0.08949219 4.54013672 0.08949219 5.8125 0.125 C5.8125 1.115 5.8125 2.105 5.8125 3.125 C6.4725 3.455 7.1325 3.785 7.8125 4.125 C4.5125 3.795 1.2125 3.465 -2.1875 3.125 C-2.001875 3.929375 -1.81625 4.73375 -1.625 5.5625 C-1.480625 6.408125 -1.33625 7.25375 -1.1875 8.125 C-1.5175 8.455 -1.8475 8.785 -2.1875 9.125 C-2.20431089 11.272449 -2.15001223 13.42051952 -2.06640625 15.56640625 C-2.01806641 16.87158203 -1.96972656 18.17675781 -1.91992188 19.52148438 C-1.86339169 20.91016075 -1.80674959 22.29883257 -1.75 23.6875 C-1.69679453 25.08006021 -1.64405404 26.47263826 -1.59179688 27.86523438 C-1.46161909 31.28535981 -1.3266382 34.70522924 -1.1875 38.125 C-2.8375 38.785 -4.4875 39.445 -6.1875 40.125 C-6.1875 39.465 -6.1875 38.805 -6.1875 38.125 C-5.1975 37.63 -5.1975 37.63 -4.1875 37.125 C-4.5175 35.805 -4.8475 34.485 -5.1875 33.125 C-8.6525 33.62 -8.6525 33.62 -12.1875 34.125 C-13.1775 31.815 -14.1675 29.505 -15.1875 27.125 C-15.5175 27.125 -15.8475 27.125 -16.1875 27.125 C-16.69864413 10.08686231 -16.69864413 10.08686231 -11.75 4.25 C-7.50722039 0.7315974 -5.46698903 -0.11756966 0 0 Z " fill="#92BD40" transform="translate(365.1875,113.875)"/>
<path d="M0 0 C1 1 1 1 1.3125 4.3125 C1 8 1 8 -0.5 10.4375 C-4.13646461 12.71029038 -6.75782535 12.28281164 -11 12 C-12.44197868 9.11604263 -12.58833581 6.17569521 -13 3 C-14.32 2.67 -15.64 2.34 -17 2 C-17.75277515 4.73249341 -18.16641703 7.28100683 -18.31640625 10.109375 C-18.35830078 10.86347656 -18.40019531 11.61757812 -18.44335938 12.39453125 C-18.50233398 13.56048828 -18.50233398 13.56048828 -18.5625 14.75 C-18.60568359 15.54277344 -18.64886719 16.33554688 -18.69335938 17.15234375 C-18.79902991 19.10137815 -18.89997966 21.05066748 -19 23 C-19.33 23 -19.66 23 -20 23 C-20 17.06 -20 11.12 -20 5 C-21.65 5.66 -23.3 6.32 -25 7 C-27.32748694 7.68679942 -29.65986656 8.35761043 -32 9 C-32.8125 6.8125 -32.8125 6.8125 -33 4 C-29.14003432 -0.7681929 -25.25955596 -3.54808881 -19.25 -4.75 C-11.70814056 -5.4188064 -5.99173282 -4.79338626 0 0 Z " fill="#7A9D35" transform="translate(347,117)"/>
<path d="M0 0 C2.01822917 0.06510417 4.03645833 0.13020833 6.0546875 0.1953125 C6.3846875 1.1853125 6.7146875 2.1753125 7.0546875 3.1953125 C6.7246875 3.8553125 6.3946875 4.5153125 6.0546875 5.1953125 C7.694375 5.659375 7.694375 5.659375 9.3671875 6.1328125 C11.60876744 6.77869147 13.8416226 7.4576242 16.0546875 8.1953125 C16.0546875 9.5153125 16.0546875 10.8353125 16.0546875 12.1953125 C16.7146875 12.1953125 17.3746875 12.1953125 18.0546875 12.1953125 C18.1990625 13.4328125 18.3434375 14.6703125 18.4921875 15.9453125 C18.84157252 18.76035749 19.25848116 21.4654622 20.0546875 24.1953125 C19.3946875 24.1953125 18.7346875 24.1953125 18.0546875 24.1953125 C17.7246875 24.8553125 17.3946875 25.5153125 17.0546875 26.1953125 C16.2104937 22.21554174 15.60781485 18.22524032 15.0546875 14.1953125 C13.61223999 15.4177218 13.61223999 15.4177218 13.8046875 19.0703125 C13.57421875 21.25 13.57421875 21.25 13.0546875 23.1953125 C10.4921875 25.1953125 10.4921875 25.1953125 8.0546875 26.1953125 C7.0646875 25.5353125 6.0746875 24.8753125 5.0546875 24.1953125 C7.3646875 23.5353125 9.6746875 22.8753125 12.0546875 22.1953125 C11.9103125 21.43605469 11.7659375 20.67679688 11.6171875 19.89453125 C11.4315625 18.90066406 11.2459375 17.90679687 11.0546875 16.8828125 C10.8690625 15.89667969 10.6834375 14.91054687 10.4921875 13.89453125 C10.0546875 11.1953125 10.0546875 11.1953125 10.0546875 8.1953125 C3.5763867 12.08229298 0.56627328 16.57089244 -2.9453125 23.1953125 C-3.6053125 22.8653125 -4.2653125 22.5353125 -4.9453125 22.1953125 C-4.9453125 21.2053125 -4.9453125 20.2153125 -4.9453125 19.1953125 C-7.24673685 20.97706038 -8.74565641 22.35835415 -9.43359375 25.2421875 C-9.66854352 27.2199736 -9.81282708 29.20803122 -9.9453125 31.1953125 C-11.9253125 31.1953125 -13.9053125 31.1953125 -15.9453125 31.1953125 C-14.9553125 30.5353125 -13.9653125 29.8753125 -12.9453125 29.1953125 C-11.84955006 26.82790912 -11.84955006 26.82790912 -11.0078125 24.0703125 C-8.03526562 15.43523334 -4.76808098 7.50361968 3.0546875 2.1953125 C0.7446875 2.1953125 -1.5653125 2.1953125 -3.9453125 2.1953125 C-1.9453125 0.1953125 -1.9453125 0.1953125 0 0 Z " fill="#90B342" transform="translate(184.9453125,61.8046875)"/>
<path d="M0 0 C2.6875 1.375 2.6875 1.375 5 3 C7.20508434 4.17145105 9.24983584 5.08327861 11.625 5.875 C14.39919994 7.18909471 14.96368671 8.17369103 16 11 C14.35 11.33 12.7 11.66 11 12 C11 13.98 11 15.96 11 18 C10.67 16.68 10.34 15.36 10 14 C9.01 14.33 8.02 14.66 7 15 C6.67 14.34 6.34 13.68 6 13 C4.02111039 12.27306096 2.02045442 11.60183749 0 11 C0 9.68 0 8.36 0 7 C-3.3 7 -6.6 7 -10 7 C-10.33 7.99 -10.66 8.98 -11 10 C-13.28515625 10.94921875 -13.28515625 10.94921875 -16.0625 11.6875 C-17.44115234 12.06455078 -17.44115234 12.06455078 -18.84765625 12.44921875 C-19.55792969 12.63097656 -20.26820313 12.81273438 -21 13 C-21.12109375 10.62890625 -21.12109375 10.62890625 -21 8 C-15.75087646 2.41222333 -7.61344723 -1.02488713 0 0 Z " fill="#93BA41" transform="translate(191,56)"/>
<path d="M0 0 C2.125 0.9375 2.125 0.9375 4 2 C3.51144531 2.94746094 3.02289063 3.89492187 2.51953125 4.87109375 C0.51073792 9.57088979 0.59389943 14.01930138 0.6875 19.0625 C0.68427734 19.93455078 0.68105469 20.80660156 0.67773438 21.70507812 C0.71786497 26.52439766 1.13636983 30.47828376 3 35 C4.65 34.34 6.3 33.68 8 33 C7.375 34.9375 7.375 34.9375 6 37 C2.875 37.75 2.875 37.75 0 38 C0 38.66 0 39.32 0 40 C3.3 40.33 6.6 40.66 10 41 C10 41.33 10 41.66 10 42 C2.09635557 42.73332783 -3.19672855 42.08680796 -9.94140625 37.80078125 C-12.99340719 35.13100434 -14.80688246 32.61961242 -15.29296875 28.54296875 C-15.25816406 27.76566406 -15.22335937 26.98835938 -15.1875 26.1875 C-15.16042969 25.39730469 -15.13335937 24.60710937 -15.10546875 23.79296875 C-15.07066406 23.20128906 -15.03585937 22.60960937 -15 22 C-14.67 22 -14.34 22 -14 22 C-13.34 24.97 -12.68 27.94 -12 31 C-11.21625 30.814375 -10.4325 30.62875 -9.625 30.4375 C-7 30 -7 30 -5 31 C-4.27840576 32.64363134 -3.60648579 34.31050386 -3 36 C-3.99 36 -4.98 36 -6 36 C-6 36.66 -6 37.32 -6 38 C-4.68 37.34 -3.36 36.68 -2 36 C-2.33 26.1 -2.66 16.2 -3 6 C-2.34 6 -1.68 6 -1 6 C-1.33 4.35 -1.66 2.7 -2 1 C-1.34 0.67 -0.68 0.34 0 0 Z " fill="#769439" transform="translate(365,116)"/>
<path d="M0 0 C1.27746094 -0.00257812 2.55492187 -0.00515625 3.87109375 -0.0078125 C7.2017337 0.11202005 10.29614456 0.48889369 13.5625 1.125 C13.5625 3.105 13.5625 5.085 13.5625 7.125 C9.9325 7.125 6.3025 7.125 2.5625 7.125 C2.5625 10.755 2.5625 14.385 2.5625 18.125 C2.2325 18.125 1.9025 18.125 1.5625 18.125 C1.5625 14.495 1.5625 10.865 1.5625 7.125 C0.5725 7.125 -0.4175 7.125 -1.4375 7.125 C-1.7675 6.135 -2.0975 5.145 -2.4375 4.125 C-2.1075 3.795 -1.7775 3.465 -1.4375 3.125 C-4.7375 2.795 -8.0375 2.465 -11.4375 2.125 C-11.4375 15.325 -11.4375 28.525 -11.4375 42.125 C-6.1575 42.125 -0.8775 42.125 4.5625 42.125 C4.5625 42.455 4.5625 42.785 4.5625 43.125 C-1.0475 43.125 -6.6575 43.125 -12.4375 43.125 C-12.4375 29.265 -12.4375 15.405 -12.4375 1.125 C-8.05747755 0.24899551 -4.43337163 -0.00892925 0 0 Z " fill="#779237" transform="translate(297.4375,112.875)"/>
<path d="M0 0 C0.99 0 1.98 0 3 0 C3 0.66 3 1.32 3 2 C3.66 2 4.32 2 5 2 C5 2.66 5 3.32 5 4 C4.34 4 3.68 4 3 4 C3.01160156 4.87140625 3.02320313 5.7428125 3.03515625 6.640625 C3.0946139 14.48903438 2.80077708 22.1924235 2 30 C0.68 30 -0.64 30 -2 30 C-2.04939662 26.04903022 -2.08571755 22.0981797 -2.10986328 18.14697266 C-2.12488107 16.1408864 -2.15028981 14.13488676 -2.17578125 12.12890625 C-2.18544922 10.24365234 -2.18544922 10.24365234 -2.1953125 8.3203125 C-2.20578613 7.15773926 -2.21625977 5.99516602 -2.22705078 4.79736328 C-2 2 -2 2 0 0 Z " fill="#93BF3F" transform="translate(397,120)"/>
<path d="M0 0 C4.8517787 2.05227082 7.28715677 5.60737767 10 10 C10.875 13 10.875 13 11 15 C12.98 15 14.96 15 17 15 C17 15.33 17 15.66 17 16 C14.03 16 11.06 16 8 16 C7.01 18.475 7.01 18.475 6 21 C3.49642139 20.1654738 1.33214148 19.20628008 -1 18 C0.65 17.67 2.3 17.34 4 17 C2.16974789 12.33285711 0.3502463 8.81234923 -3 5 C-1.68 4.34 -0.36 3.68 1 3 C0.67 2.01 0.34 1.02 0 0 Z " fill="#7A9A39" transform="translate(205,63)"/>
<path d="M0 0 C0.72010254 0.00008057 1.44020508 0.00016113 2.18212891 0.00024414 C4.36380873 -0.00193029 6.54497306 -0.02004706 8.7265625 -0.0390625 C10.11848786 -0.04199884 11.51041561 -0.04398203 12.90234375 -0.04492188 C14.80161621 -0.05108521 14.80161621 -0.05108521 16.73925781 -0.05737305 C19.99421417 0.17535774 22.21770029 0.78067354 25.13671875 2.18554688 C24.61403409 4.94830865 24.02802288 7.51163447 23.13671875 10.18554688 C22.47671875 10.18554688 21.81671875 10.18554688 21.13671875 10.18554688 C21.79671875 7.87554687 22.45671875 5.56554687 23.13671875 3.18554688 C10.56451409 0.39172362 -1.73721831 1.77161195 -12.63671875 8.55273438 C-14.95216726 10.25072995 -16.89023001 12.10438323 -18.86328125 14.18554688 C-19.17578125 11.87304688 -19.17578125 11.87304688 -18.86328125 9.18554688 C-16.47998665 7.36671679 -14.90509788 6.18554688 -11.86328125 6.18554688 C-11.88390625 5.38117188 -11.90453125 4.57679687 -11.92578125 3.74804688 C-11.78046843 -2.20977872 -4.60820478 0.01632158 0 0 Z " fill="#9DBF58" transform="translate(174.86328125,113.814453125)"/>
<path d="M0 0 C2 3 2 3 1.49609375 5.8125 C1.14675781 6.864375 0.79742187 7.91625 0.4375 9 C0.10621094 10.051875 -0.22507813 11.10375 -0.56640625 12.1875 C-2.27693019 15.54329629 -3.56553411 16.52591508 -7 18 C-9.45703125 18.29296875 -9.45703125 18.29296875 -11.8125 18.1875 C-12.99779297 18.14689453 -12.99779297 18.14689453 -14.20703125 18.10546875 C-14.79871094 18.07066406 -15.39039063 18.03585938 -16 18 C-12.77208445 15.8480563 -11.71599191 15.79913557 -8 16 C-7.87882813 15.39671875 -7.75765625 14.7934375 -7.6328125 14.171875 C-7.46523437 13.37265625 -7.29765625 12.5734375 -7.125 11.75 C-6.96257812 10.96109375 -6.80015625 10.1721875 -6.6328125 9.359375 C-6.00849925 7.03168856 -5.15161458 5.10968048 -4 3 C-3.34 3 -2.68 3 -2 3 C-2 2.34 -2 1.68 -2 1 C-1.34 0.67 -0.68 0.34 0 0 Z " fill="#93B941" transform="translate(160,83)"/>
<path d="M0 0 C0.66 0 1.32 0 2 0 C2 13.53 2 27.06 2 41 C0.35 41 -1.3 41 -3 41 C-2.67 40.01 -2.34 39.02 -2 38 C-1.34 38 -0.68 38 0 38 C0 25.46 0 12.92 0 0 Z " fill="#77983C" transform="translate(441,114)"/>
<path d="M0 0 C1.28132813 0.00902344 2.56265625 0.01804687 3.8828125 0.02734375 C4.87023437 0.03894531 5.85765625 0.05054687 6.875 0.0625 C6.875 0.7225 6.875 1.3825 6.875 2.0625 C2.255 2.0625 -2.365 2.0625 -7.125 2.0625 C-7.00125 3.733125 -7.00125 3.733125 -6.875 5.4375 C-6.84253281 11.49804245 -9.45961013 16.73172027 -12.125 22.0625 C-12.785 21.7325 -13.445 21.4025 -14.125 21.0625 C-14.455 22.0525 -14.785 23.0425 -15.125 24.0625 C-14.25246482 19.2390471 -12.97392916 14.53815812 -11.6875 9.8125 C-11.47029297 8.98492187 -11.25308594 8.15734375 -11.02929688 7.3046875 C-10.81466797 6.51835938 -10.60003906 5.73203125 -10.37890625 4.921875 C-10.18627197 4.20483398 -9.9936377 3.48779297 -9.79516602 2.74902344 C-8.20724528 -1.24709914 -3.62330064 -0.0329391 0 0 Z " fill="#7B9E3D" transform="translate(432.125,112.9375)"/>
<path d="M0 0 C1.46366342 0.39753821 2.9208935 0.81881384 4.375 1.25 C5.18710938 1.48203125 5.99921875 1.7140625 6.8359375 1.953125 C9.45785454 3.2214892 9.99382318 4.32423308 11 7 C9.35 7.33 7.7 7.66 6 8 C6 9.98 6 11.96 6 14 C5.67 12.68 5.34 11.36 5 10 C4.01 10.33 3.02 10.66 2 11 C1.67 10.34 1.34 9.68 1 9 C-0.97888961 8.27306096 -2.97954558 7.60183749 -5 7 C-4.175 6.21625 -3.35 5.4325 -2.5 4.625 C0.22988506 2.36278736 0.22988506 2.36278736 0 0 Z " fill="#84AB38" transform="translate(196,60)"/>
<path d="M0 0 C-0.66 0 -1.32 0 -2 0 C-2.33 0.99 -2.66 1.98 -3 3 C-4.65 3.33 -6.3 3.66 -8 4 C-9.8815863 13.32509434 -11.47703913 22.47850555 -12 32 C-12.66 32 -13.32 32 -14 32 C-14.12888678 25.58788288 -13.72462714 19.52257642 -12.75 13.1875 C-12.64042969 12.35541016 -12.53085938 11.52332031 -12.41796875 10.66601562 C-11.84467231 6.90338057 -11.42378726 4.55385205 -9.078125 1.48828125 C-5.75604387 -0.89087836 -3.80179958 -1.17986883 0 0 Z " fill="#728E37" transform="translate(143,102)"/>
<path d="M0 0 C0.66 0 1.32 0 2 0 C2.02685938 2.14576637 2.04633088 4.29162645 2.0625 6.4375 C2.07410156 7.63246094 2.08570312 8.82742187 2.09765625 10.05859375 C2 13 2 13 1 14 C0.71406667 17.5900518 0.55089829 21.18014845 0.37890625 24.77734375 C0 28 0 28 -2 30 C-2.69748583 31.31747324 -3.36959957 32.64914193 -4 34 C-3.38472483 22.56436841 -1.70575375 11.31445876 0 0 Z " fill="#7FA03E" transform="translate(123,174)"/>
<path d="M0 0 C-0.76084588 4.18865681 -1.87822698 8.22484795 -3.0625 12.3125 C-3.42472656 13.56675781 -3.78695312 14.82101563 -4.16015625 16.11328125 C-4.43730469 17.06589844 -4.71445313 18.01851562 -5 19 C-6.65 19 -8.3 19 -10 19 C-8.68 18.67 -7.36 18.34 -6 18 C-5.66517137 15.37518273 -5.3320723 12.75016613 -5 10.125 C-4.90460938 9.37863281 -4.80921875 8.63226563 -4.7109375 7.86328125 C-4.18983217 3.94392131 -4.18983217 3.94392131 -4 0 C-11.92 0.33 -19.84 0.66 -28 1 C-22.3748828 -4.6251172 -6.70909197 -2.98181865 0 0 Z " fill="#E6F3CC" transform="translate(198,117)"/>
<path d="M0 0 C0.33 0 0.66 0 1 0 C1.02895976 3.12498063 1.04678483 6.2499269 1.0625 9.375 C1.07087891 10.26445312 1.07925781 11.15390625 1.08789062 12.0703125 C1.09272461 13.34648437 1.09272461 13.34648437 1.09765625 14.6484375 C1.10551147 15.82672119 1.10551147 15.82672119 1.11352539 17.02880859 C1 19 1 19 0 21 C-6.93302093 21.22731216 -13.2168636 20.42002108 -20 19 C-20 18.67 -20 18.34 -20 18 C-17.5622037 17.94602665 -15.12560315 17.90634384 -12.6875 17.875 C-11.99720703 17.85824219 -11.30691406 17.84148437 -10.59570312 17.82421875 C-6.82864604 17.78782206 -5.21568296 17.85621136 -2 20 C-1.90912109 18.21142578 -1.90912109 18.21142578 -1.81640625 16.38671875 C-1.73198851 14.82030075 -1.64734113 13.25389512 -1.5625 11.6875 C-1.52318359 10.90181641 -1.48386719 10.11613281 -1.44335938 9.30664062 C-1.40146484 8.54931641 -1.35957031 7.79199219 -1.31640625 7.01171875 C-1.27974854 6.31522217 -1.24309082 5.61872559 -1.20532227 4.90112305 C-1 3 -1 3 0 0 Z " fill="#88B442" transform="translate(216,205)"/>
<path d="M0 0 C0.42669527 4.35229172 0.51064497 6.32886661 -2.1875 9.875 C-4.97701716 11.98263518 -6.56466156 12.70554242 -10 13 C-8.68 12.34 -7.36 11.68 -6 11 C-6.99 9.68 -7.98 8.36 -9 7 C-5 7 -5 7 -3 8 C-3.33 6.35 -3.66 4.7 -4 3 C-4.33 3.33 -4.66 3.66 -5 4 C-6.51928038 4.07179964 -8.04167482 4.08392007 -9.5625 4.0625 C-10.38878906 4.05347656 -11.21507812 4.04445312 -12.06640625 4.03515625 C-12.70449219 4.02355469 -13.34257812 4.01195312 -14 4 C-13.08541016 3.55720703 -13.08541016 3.55720703 -12.15234375 3.10546875 C-9.89204504 2.00380295 -9.89204504 2.00380295 -7.5625 0.3125 C-4.50861642 -1.25168427 -3.20884927 -1.00849549 0 0 Z " fill="#77943F" transform="translate(348,144)"/>
<path d="M0 0 C0.66 0.33 1.32 0.66 2 1 C1.25 7.625 1.25 7.625 -1 11 C-2.9453125 11.29296875 -2.9453125 11.29296875 -5.125 11.1875 C-7.043125 11.0946875 -7.043125 11.0946875 -9 11 C-10.43088528 8.13822943 -9.59991697 6.06624227 -9 3 C-7.8553125 3.2475 -7.8553125 3.2475 -6.6875 3.5 C-3.96403764 4.09145396 -3.96403764 4.09145396 -1 4 C-0.67 2.68 -0.34 1.36 0 0 Z " fill="#81A440" transform="translate(345,118)"/>
<path d="M0 0 C0.33 1.32 0.66 2.64 1 4 C1.66 4 2.32 4 3 4 C3 3.34 3 2.68 3 2 C4.65 1.67 6.3 1.34 8 1 C6.35 3.97 4.7 6.94 3 10 C2.34 9.67 1.68 9.34 1 9 C1 8.01 1 7.02 1 6 C-1.30142435 7.78174788 -2.80034391 9.16304165 -3.48828125 12.046875 C-3.72323102 14.0246611 -3.86751458 16.01271872 -4 18 C-5.98 18 -7.96 18 -10 18 C-9.01 17.34 -8.02 16.68 -7 16 C-5.87088154 13.53065536 -5.87088154 13.53065536 -5 10.6875 C-3.71800797 6.77208268 -2.22695423 3.4732894 0 0 Z " fill="#6F8C35" transform="translate(179,75)"/>
<path d="M0 0 C-0.99 1.485 -0.99 1.485 -2 3 C-2.66 3 -3.32 3 -4 3 C-3.67 4.98 -3.34 6.96 -3 9 C-4.65 9.33 -6.3 9.66 -8 10 C-8 10.66 -8 11.32 -8 12 C-8.66 12 -9.32 12 -10 12 C-10.8125 9.375 -10.8125 9.375 -11 6 C-8.91290827 2.83954682 -7.34471394 0.57630598 -3.8125 -0.9375 C-2 -1 -2 -1 0 0 Z " fill="#81A238" transform="translate(190,67)"/>
<path d="M0 0 C2.01822917 0.06510417 4.03645833 0.13020833 6.0546875 0.1953125 C6.3846875 1.1853125 6.7146875 2.1753125 7.0546875 3.1953125 C6.7246875 3.8553125 6.3946875 4.5153125 6.0546875 5.1953125 C8.5296875 6.1853125 8.5296875 6.1853125 11.0546875 7.1953125 C10.7246875 8.5153125 10.3946875 9.8353125 10.0546875 11.1953125 C10.0546875 10.2053125 10.0546875 9.2153125 10.0546875 8.1953125 C7.4146875 9.8453125 4.7746875 11.4953125 2.0546875 13.1953125 C1.3671875 10.8828125 1.3671875 10.8828125 1.0546875 8.1953125 C2.4921875 6.3828125 2.4921875 6.3828125 4.0546875 5.1953125 C3.0646875 4.8653125 2.0746875 4.5353125 1.0546875 4.1953125 C1.7146875 3.5353125 2.3746875 2.8753125 3.0546875 2.1953125 C0.7446875 2.1953125 -1.5653125 2.1953125 -3.9453125 2.1953125 C-1.9453125 0.1953125 -1.9453125 0.1953125 0 0 Z " fill="#6D8D32" transform="translate(184.9453125,61.8046875)"/>
<path d="M0 0 C1.65 0 3.3 0 5 0 C6.62232121 4.32400937 7.28996903 8.08257097 7.5 12.6875 C7.81626584 18.13302277 8.52448546 23.30195669 9.58984375 28.64453125 C10.07940638 31.45601951 10.15390151 34.15282204 10 37 C9.67 37 9.34 37 9 37 C8.67 33.7 8.34 30.4 8 27 C7.34 27 6.68 27 6 27 C5.96036133 26.25314941 5.92072266 25.50629883 5.87988281 24.73681641 C5.68977397 21.36474767 5.47027625 17.9952267 5.25 14.625 C5.1571875 12.8615625 5.1571875 12.8615625 5.0625 11.0625 C4.98515625 9.94101563 4.9078125 8.81953125 4.828125 7.6640625 C4.7652832 6.62717285 4.70244141 5.5902832 4.63769531 4.52197266 C4.26142751 1.84159411 4.26142751 1.84159411 1.94824219 0.64599609 C1.30532227 0.43281738 0.66240234 0.21963867 0 0 Z " fill="#425E2C" transform="translate(245,89)"/>
<path d="M0 0 C0.66 0.33 1.32 0.66 2 1 C2.22082672 7.0727349 1.78934281 12.96985994 1.125 19 C1.04652832 19.76626709 0.96805664 20.53253418 0.88720703 21.32202148 C0.66496705 23.22471142 0.34082587 25.11493838 0 27 C-0.66 27.33 -1.32 27.66 -2 28 C-2.26349633 18.36774517 -1.61693023 9.4994651 0 0 Z " fill="#78953E" transform="translate(127,142)"/>
<path d="M0 0 C-0.33 1.65 -0.66 3.3 -1 5 C-1.66 5 -2.32 5 -3 5 C-3.33 6.32 -3.66 7.64 -4 9 C-4.66 9 -5.32 9 -6 9 C-6.33 10.32 -6.66 11.64 -7 13 C-8.04336284 9.60907078 -8.22584687 6.5382677 -8 3 C-5.45189726 -0.82215411 -4.39145359 -1.46381786 0 0 Z " fill="#88AC3C" transform="translate(170,70)"/>
<path d="M0 0 C4.11438466 -0.4898077 5.66941503 -0.23140948 9.125 2.1875 C11.09505797 3.96969162 12.3523027 5.51671063 13.875 7.75 C17.00219147 11.0611439 19.53172357 10.77658618 24 11 C24 11.33 24 11.66 24 12 C17.13129714 12.2693609 12.63760954 12.22731473 7.1875 7.625 C5 5 5 5 5 1 C3.35 1 1.7 1 0 1 C0 0.67 0 0.34 0 0 Z " fill="#4E6D32" transform="translate(219,77)"/>
<path d="M0 0 C0 0.66 0 1.32 0 2 C-0.66 2.66 -1.32 3.32 -2 4 C-0.68 4 0.64 4 2 4 C1.67 4.99 1.34 5.98 1 7 C-1.28515625 7.94921875 -1.28515625 7.94921875 -4.0625 8.6875 C-5.44115234 9.06455078 -5.44115234 9.06455078 -6.84765625 9.44921875 C-7.55792969 9.63097656 -8.26820313 9.81273438 -9 10 C-9.1484375 7.640625 -9.1484375 7.640625 -9 5 C-3.72222222 0 -3.72222222 0 0 0 Z " fill="#789638" transform="translate(179,59)"/>
<path d="M0 0 C1.3921875 0.2784375 1.3921875 0.2784375 2.8125 0.5625 C6.01343771 1.24123881 6.01343771 1.24123881 9 0 C9.19546065 4.30013434 8.9955516 6.00889681 7 10 C4.03 10 1.06 10 -2 10 C-2 9.67 -2 9.34 -2 9 C0.64 9 3.28 9 6 9 C5.67 7.35 5.34 5.7 5 4 C2.69 4 0.38 4 -2 4 C-2 3.34 -2 2.68 -2 2 C-1.34 2 -0.68 2 0 2 C0 1.34 0 0.68 0 0 Z " fill="#92BF3D" transform="translate(412,146)"/>
<path d="M0 0 C0.33 0 0.66 0 1 0 C1.66 2.97 2.32 5.94 3 9 C3.78375 8.814375 4.5675 8.62875 5.375 8.4375 C8 8 8 8 10 9 C10.72159424 10.64363134 11.39351421 12.31050386 12 14 C9.36 14.33 6.72 14.66 4 15 C-0.11888494 9.98010898 -0.51211281 6.40141012 0 0 Z " fill="#7C9E3C" transform="translate(350,138)"/>
<path d="M0 0 C0 1.98 0 3.96 0 6 C-1.258125 6.020625 -2.51625 6.04125 -3.8125 6.0625 C-4.52019531 6.07410156 -5.22789062 6.08570312 -5.95703125 6.09765625 C-8 6 -8 6 -11 5 C-11 4.34 -11 3.68 -11 3 C-11.66 2.34 -12.32 1.68 -13 1 C-11.58366664 0.83052421 -10.16691467 0.66454493 -8.75 0.5 C-7.56664062 0.36078125 -7.56664062 0.36078125 -6.359375 0.21875 C-4 0 -4 0 0 0 Z " fill="#86AA3E" transform="translate(311,114)"/>
<path d="M0 0 C0.33 1.32 0.66 2.64 1 4 C-0.32 4 -1.64 4 -3 4 C-3 3.01 -3 2.02 -3 1 C-3.66 1 -4.32 1 -5 1 C-5.33 1.99 -5.66 2.98 -6 4 C-6.66 4 -7.32 4 -8 4 C-8.33 4.99 -8.66 5.98 -9 7 C-9 6.01 -9 5.02 -9 4 C-12.58327753 2.99782936 -12.58327753 2.99782936 -16 4 C-16.66 3.34 -17.32 2.68 -18 2 C-12.12116651 -0.61281488 -6.29268272 -0.18328202 0 0 Z " fill="#8EB345" transform="translate(337,114)"/>
<path d="M0 0 C-0.639375 0.103125 -1.27875 0.20625 -1.9375 0.3125 C-2.618125 0.539375 -3.29875 0.76625 -4 1 C-4.33 1.99 -4.66 2.98 -5 4 C-5.33 3.34 -5.66 2.68 -6 2 C-6.66 2 -7.32 2 -8 2 C-8.66 3.32 -9.32 4.64 -10 6 C-10.66 5.01 -11.32 4.02 -12 3 C-11.67 1.68 -11.34 0.36 -11 -1 C-14.3 -1 -17.6 -1 -21 -1 C-21 -1.33 -21 -1.66 -21 -2 C-13.75103136 -3.38810038 -6.76504072 -3.2734068 0 0 Z " fill="#6E893B" transform="translate(382,115)"/>
<path d="M0 0 C0.66 0 1.32 0 2 0 C3.125 5.75 3.125 5.75 2 8 C5.3 7.34 8.6 6.68 12 6 C12.33 6.66 12.66 7.32 13 8 C12.30132812 8.13277344 11.60265625 8.26554687 10.8828125 8.40234375 C9.97273437 8.57894531 9.06265625 8.75554687 8.125 8.9375 C7.22007812 9.11152344 6.31515625 9.28554687 5.3828125 9.46484375 C3.00043683 9.89963701 3.00043683 9.89963701 1 11 C0.67 10.01 0.34 9.02 0 8 C-0.99 8 -1.98 8 -3 8 C-2.45276317 4.62537285 -1.9451 2.91765 0 0 Z " fill="#87A741" transform="translate(178,81)"/>
<path d="M0 0 C0.66 0 1.32 0 2 0 C3.96883864 8.82801843 3.46519479 16.64640541 0 25 C-0.33 25 -0.66 25 -1 25 C-1 22.36 -1 19.72 -1 17 C-0.67 17 -0.34 17 0 17 C0 11.39 0 5.78 0 0 Z " fill="#6E8A35" transform="translate(387,124)"/>
<path d="M0 0 C4.2742558 1.5830577 6.26531794 4.50568404 9 8 C8.67 8.66 8.34 9.32 8 10 C7.01 9.34 6.02 8.68 5 8 C5 7.34 5 6.68 5 6 C4.34 6 3.68 6 3 6 C3 7.98 3 9.96 3 12 C-1.875 7.25 -1.875 7.25 -3 5 C-1.68 4.34 -0.36 3.68 1 3 C0.67 2.01 0.34 1.02 0 0 Z " fill="#577027" transform="translate(205,63)"/>
<path d="M0 0 C0.66 0.99 1.32 1.98 2 3 C3.98 2.67 5.96 2.34 8 2 C6.71937515 3.7074998 5.38232443 5.37373596 4 7 C3.34 7 2.68 7 2 7 C1.731875 7.721875 1.46375 8.44375 1.1875 9.1875 C0.01017502 11.97590126 -1.39145884 14.44095724 -3 17 C-3.33 16.34 -3.66 15.68 -4 15 C-3.0625 12.375 -3.0625 12.375 -2 10 C-1.34 10 -0.68 10 0 10 C0 8.35 0 6.7 0 5 C-1.32 4.67 -2.64 4.34 -4 4 C-2.68 2.68 -1.36 1.36 0 0 Z " fill="#576E26" transform="translate(169,65)"/>
<path d="M0 0 C0.33 0 0.66 0 1 0 C0.67 11.55 0.34 23.1 0 35 C-0.33 35 -0.66 35 -1 35 C-1.19345033 30.98036212 -1.371972 26.96035628 -1.53710938 22.93945312 C-1.59525335 21.57371568 -1.65736558 20.20814084 -1.72363281 18.84277344 C-1.81856421 16.8722278 -1.89771232 14.90094211 -1.9765625 12.9296875 C-2.02893066 11.74616699 -2.08129883 10.56264648 -2.13525391 9.34326172 C-1.9946952 5.86887366 -1.2583191 3.22524793 0 0 Z " fill="#80B13E" transform="translate(220,133)"/>
<path d="M0 0 C0 0.99 0 1.98 0 3 C1.43750191 4.68798827 1.43750191 4.68798827 3 6 C2 7 2 7 -0.28515625 7.09765625 C-1.65994141 7.08025391 -1.65994141 7.08025391 -3.0625 7.0625 C-3.98160156 7.05347656 -4.90070313 7.04445312 -5.84765625 7.03515625 C-6.55792969 7.02355469 -7.26820313 7.01195312 -8 7 C-8 5.68 -8 4.36 -8 3 C-6.865625 2.690625 -5.73125 2.38125 -4.5625 2.0625 C-1.21224901 1.37075469 -1.21224901 1.37075469 0 0 Z " fill="#96BE46" transform="translate(373,150)"/>
<path d="M0 0 C0.66 0 1.32 0 2 0 C2.32097656 1.56427734 2.32097656 1.56427734 2.6484375 3.16015625 C3.87073391 7.4381937 6.23746437 9.56203371 9.625 12.4375 C10.140625 12.88287109 10.65625 13.32824219 11.1875 13.78710938 C12.44685163 14.87155105 13.72187677 15.93774708 15 17 C13.68 17.33 12.36 17.66 11 18 C10.34 16.68 9.68 15.36 9 14 C8.34 14 7.68 14 7 14 C3.21612767 10.62704594 0.20159787 7.61278299 -0.4375 2.5 C-0.293125 1.675 -0.14875 0.85 0 0 Z " fill="#D8E9B9" transform="translate(167,138)"/>
<path d="M0 0 C0.33 0 0.66 0 1 0 C1 3.63 1 7.26 1 11 C3.6915625 10.9690625 3.6915625 10.9690625 6.4375 10.9375 C8.29166122 10.9161878 10.14712498 10.92773498 12 11 C13 12 13 12 13.0625 15.0625 C13.041875 16.031875 13.02125 17.00125 13 18 C11.02 18 9.04 18 7 18 C8.32 17.67 9.64 17.34 11 17 C11 15.68 11 14.36 11 13 C7.37 12.67 3.74 12.34 0 12 C0 8.04 0 4.08 0 0 Z " fill="#586E24" transform="translate(299,138)"/>
<path d="M0 0 C1.2288865 3.51461538 0.75329849 5.68356387 -0.375 9.1875 C-0.65085938 10.06792969 -0.92671875 10.94835937 -1.2109375 11.85546875 C-2 14 -2 14 -3 15 C-4.51928038 15.07179964 -6.04167482 15.08392007 -7.5625 15.0625 C-8.38878906 15.05347656 -9.21507812 15.04445313 -10.06640625 15.03515625 C-10.70449219 15.02355469 -11.34257812 15.01195313 -12 15 C-8.77208445 12.8480563 -7.71599191 12.79913557 -4 13 C-3.87882813 12.39671875 -3.75765625 11.7934375 -3.6328125 11.171875 C-3.46523437 10.37265625 -3.29765625 9.5734375 -3.125 8.75 C-2.96257812 7.96109375 -2.80015625 7.1721875 -2.6328125 6.359375 C-2.00849925 4.03168856 -1.15161458 2.10968048 0 0 Z " fill="#5E722C" transform="translate(156,86)"/>
<path d="M0 0 C1.28132813 0.00902344 2.56265625 0.01804687 3.8828125 0.02734375 C4.87023437 0.03894531 5.85765625 0.05054687 6.875 0.0625 C6.875 0.7225 6.875 1.3825 6.875 2.0625 C2.255 2.0625 -2.365 2.0625 -7.125 2.0625 C-7.455 3.3825 -7.785 4.7025 -8.125 6.0625 C-8.785 6.7225 -9.445 7.3825 -10.125 8.0625 C-9.86938677 5.7193787 -9.53229228 3.38406597 -9.125 1.0625 C-6.12186252 -0.43906874 -3.33432478 -0.03031204 0 0 Z " fill="#738240" transform="translate(432.125,112.9375)"/>
<path d="M0 0 C0.33 0 0.66 0 1 0 C1.22126178 2.45779976 1.42750395 4.91527648 1.625 7.375 C1.68945312 8.07367188 1.75390625 8.77234375 1.8203125 9.4921875 C1.96119739 11.32369111 1.98761659 13.16312748 2 15 C1.34 15.66 0.68 16.32 0 17 C-0.69748583 18.31747324 -1.36959957 19.64914193 -2 21 C-1.49656013 13.97326485 -0.95812032 6.98059091 0 0 Z " fill="#607A2E" transform="translate(121,187)"/>
<path d="M0 0 C2.9375 1.5 2.9375 1.5 5 3 C1.59904027 4.13365324 -0.532952 3.70916891 -4 3 C-6.67340575 2.91038863 -9.3238952 2.95464229 -12 3 C-8.44249072 -0.55750928 -4.81595078 -0.33213454 0 0 Z " fill="#5A6E2B" transform="translate(191,56)"/>
<path d="M0 0 C1.98 0 3.96 0 6 0 C6.33 1.65 6.66 3.3 7 5 C4.36 5 1.72 5 -1 5 C-0.67 3.35 -0.34 1.7 0 0 Z " fill="#95BE43" transform="translate(411,150)"/>
<path d="M0 0 C2.02907167 3.3146667 2.12742133 5.4315979 1.625 9.25 C1.51414062 10.14203125 1.40328125 11.0340625 1.2890625 11.953125 C1.19367188 12.62859375 1.09828125 13.3040625 1 14 C0.67 12.68 0.34 11.36 0 10 C-0.99 10.33 -1.98 10.66 -3 11 C-2.53199289 6.94393835 -2.12046792 3.53411321 0 0 Z " fill="#94BF42" transform="translate(421,130)"/>
<path d="M0 0 C2.43816585 -0.0809723 4.87364384 -0.14046972 7.3125 -0.1875 C8.34793945 -0.22520508 8.34793945 -0.22520508 9.40429688 -0.26367188 C14.55674183 -0.33834499 14.55674183 -0.33834499 16.98046875 1.51171875 C17.31691406 2.00285156 17.65335938 2.49398437 18 3 C15.74943278 2.88566637 13.49953326 2.75813564 11.25 2.625 C9.99703125 2.55539063 8.7440625 2.48578125 7.453125 2.4140625 C4.39001879 2.04676696 2.58025734 1.60288714 0 0 Z " fill="#5F772D" transform="translate(196,223)"/>
<path d="M0 0 C4.62 0 9.24 0 14 0 C14 0.66 14 1.32 14 2 C15.32 2.66 16.64 3.32 18 4 C11.85845775 3.41509121 5.99320151 2.45933748 0 1 C0 0.67 0 0.34 0 0 Z " fill="#617D2A" transform="translate(178,219)"/>
<path d="M0 0 C0 1.32 0 2.64 0 4 C0.598125 3.649375 1.19625 3.29875 1.8125 2.9375 C4 2 4 2 7 3 C6.01 4.485 6.01 4.485 5 6 C-2.50769231 5.50769231 -2.50769231 5.50769231 -5 2.9375 C-5.33 2.298125 -5.66 1.65875 -6 1 C-3.92446352 0.4465236 -2.15634036 0 0 0 Z " fill="#9DC051" transform="translate(155,176)"/>
<path d="M0 0 C0.33 0 0.66 0 1 0 C1.42669527 4.35229172 1.51064497 6.32886661 -1.1875 9.875 C-3.97701716 11.98263518 -5.56466156 12.70554242 -9 13 C-7.68 12.34 -6.36 11.68 -5 11 C-5.99 9.68 -6.98 8.36 -8 7 C-4 7 -4 7 -1 8 C-0.67 5.36 -0.34 2.72 0 0 Z " fill="#5B762A" transform="translate(347,144)"/>
<path d="M0 0 C2.64 0.66 5.28 1.32 8 2 C8.33 3.32 8.66 4.64 9 6 C8.01 6.33 7.02 6.66 6 7 C2.76985216 4.84656811 1.24313463 3.72940389 0 0 Z " fill="#6D8A32" transform="translate(314,148)"/>
<path d="M0 0 C1.32 0.33 2.64 0.66 4 1 C4.33 2.32 4.66 3.64 5 5 C6.32 5.33 7.64 5.66 9 6 C9 6.99 9 7.98 9 9 C9.66 9 10.32 9 11 9 C10.67 9.66 10.34 10.32 10 11 C8.70145279 9.92492371 7.41141639 8.83956264 6.125 7.75 C5.40570313 7.14671875 4.68640625 6.5434375 3.9453125 5.921875 C2.02947882 4.02912366 1.03550955 2.46342273 0 0 Z " fill="#E9F5D2" transform="translate(155,158)"/>
<path d="M0 0 C4.62 0 9.24 0 14 0 C14 0.33 14 0.66 14 1 C8.06 1.495 8.06 1.495 2 2 C2.33 4.64 2.66 7.28 3 10 C0.99226044 7.99226044 0.00607146 6.63126383 -1 4 C-0.67 2.68 -0.34 1.36 0 0 Z " fill="#484848" transform="translate(450,172)"/>
<path d="M0 0 C0.66 0.33 1.32 0.66 2 1 C1.67 3.31 1.34 5.62 1 8 C-1.3125 8.625 -1.3125 8.625 -4 9 C-4.99 8.34 -5.98 7.68 -7 7 C-5.02 6.34 -3.04 5.68 -1 5 C-0.67 3.35 -0.34 1.7 0 0 Z " fill="#96BA4E" transform="translate(345,118)"/>
<path d="M0 0 C0 0.66 0 1.32 0 2 C-1.175625 2.185625 -1.175625 2.185625 -2.375 2.375 C-5.14057822 2.79117993 -5.14057822 2.79117993 -7 5 C-7.45811675 6.97235333 -7.45811675 6.97235333 -7.625 9.125 C-7.74875 10.40375 -7.8725 11.6825 -8 13 C-8.33 13 -8.66 13 -9 13 C-9 9.04 -9 5.08 -9 1 C-5.68756695 0.17189174 -3.34023421 -0.09278428 0 0 Z " fill="#92BA49" transform="translate(322,124)"/>
<path d="M0 0 C0.66 0.33 1.32 0.66 2 1 C2.08131463 2.43655854 2.13933559 3.8744483 2.1875 5.3125 C2.23970703 6.51326172 2.23970703 6.51326172 2.29296875 7.73828125 C2 10 2 10 -1 13 C-0.67 8.71 -0.34 4.42 0 0 Z " fill="#576E2C" transform="translate(127,142)"/>
<path d="M0 0 C0 0.99 0 1.98 0 3 C-3.15830185 6.06806466 -5.61999924 7.49942848 -10 8 C-8.76736651 4.30209954 -7.79947549 4.0645154 -4.4375 2.3125 C-3.61121094 1.87550781 -2.78492188 1.43851563 -1.93359375 0.98828125 C-1.29550781 0.66214844 -0.65742188 0.33601562 0 0 Z " fill="#688331" transform="translate(385,149)"/>
<path d="M0 0 C2 3 2 3 3 6 C4.65 5.34 6.3 4.68 8 4 C7.5 5.9375 7.5 5.9375 6 8 C3.30341548 8.68790422 0.7982981 8.81946464 -2 9 C-1.34 6.03 -0.68 3.06 0 0 Z " fill="#65822E" transform="translate(365,145)"/>
<path d="M0 0 C5.94 0 11.88 0 18 0 C18 0.66 18 1.32 18 2 C16.95199219 1.97679687 15.90398437 1.95359375 14.82421875 1.9296875 C13.44531963 1.91092697 12.0664128 1.89272707 10.6875 1.875 C9.99720703 1.85824219 9.30691406 1.84148437 8.59570312 1.82421875 C4.82864604 1.78782206 3.21568296 1.85621136 0 4 C0 2.68 0 1.36 0 0 Z " fill="#EEFAD7" transform="translate(170,133)"/>
<path d="M0 0 C0.5625 1.9375 0.5625 1.9375 1 4 C0.67 4.33 0.34 4.66 0 5 C-0.23075082 6.34747084 -0.41153063 7.70377565 -0.5625 9.0625 C-0.706875 10.361875 -0.85125 11.66125 -1 13 C-2.98 13 -4.96 13 -7 13 C-6.01 12.34 -5.02 11.68 -4 11 C-2.76609844 8.36367029 -2.76609844 8.36367029 -1.8125 5.375 C-1.46832031 4.37210937 -1.12414062 3.36921875 -0.76953125 2.3359375 C-0.51558594 1.56507812 -0.26164063 0.79421875 0 0 Z " fill="#4F661E" transform="translate(176,80)"/>
<path d="M0 0 C0.33 0 0.66 0 1 0 C1.33 3.96 1.66 7.92 2 12 C-0.475 13.485 -0.475 13.485 -3 15 C-3.99 14.34 -4.98 13.68 -6 13 C-3.69 12.34 -1.38 11.68 1 11 C0.67 10.01 0.34 9.02 0 8 C-0.12781786 5.32605036 -0.04391871 2.67904143 0 0 Z " fill="#677E32" transform="translate(196,73)"/>
<path d="M0 0 C1.42944945 2.35438733 2.08661261 3.48032433 1.625 6.25 C1.41875 6.8275 1.2125 7.405 1 8 C0.360625 8.12375 -0.27875 8.2475 -0.9375 8.375 C-1.618125 8.58125 -2.29875 8.7875 -3 9 C-3.33 9.66 -3.66 10.32 -4 11 C-3.39301257 6.87248551 -1.96189209 3.6678852 0 0 Z " fill="#718D32" transform="translate(161,75)"/>
<path d="M0 0 C2.01822917 0.06510417 4.03645833 0.13020833 6.0546875 0.1953125 C6.0546875 1.5153125 6.0546875 2.8353125 6.0546875 4.1953125 C4.4046875 4.5253125 2.7546875 4.8553125 1.0546875 5.1953125 C1.7146875 4.2053125 2.3746875 3.2153125 3.0546875 2.1953125 C0.7446875 2.1953125 -1.5653125 2.1953125 -3.9453125 2.1953125 C-1.9453125 0.1953125 -1.9453125 0.1953125 0 0 Z " fill="#5E7A2C" transform="translate(184.9453125,61.8046875)"/>
<path d="M0 0 C0.66 0.33 1.32 0.66 2 1 C2.125 4.375 2.125 4.375 2 8 C1.34 8.66 0.68 9.32 0 10 C-2.125 9.625 -2.125 9.625 -4 9 C-3.01 8.67 -2.02 8.34 -1 8 C-0.67 5.36 -0.34 2.72 0 0 Z " fill="#E7F5CB" transform="translate(169,174)"/>
<path d="M0 0 C6.625 -0.125 6.625 -0.125 10 1 C10 2.32 10 3.64 10 5 C8.68 5 7.36 5 6 5 C5.67 3.68 5.34 2.36 5 1 C3.35 1 1.7 1 0 1 C0 0.67 0 0.34 0 0 Z " fill="#94BB47" transform="translate(300,150)"/>
<path d="M0 0 C0.33 0 0.66 0 1 0 C1.02698189 1.62490954 1.04638757 3.24994633 1.0625 4.875 C1.07410156 5.77992188 1.08570313 6.68484375 1.09765625 7.6171875 C1 10 1 10 0 12 C-1.65 12 -3.3 12 -5 12 C-4.01 11.67 -3.02 11.34 -2 11 C-1.34 7.37 -0.68 3.74 0 0 Z " fill="#A6C561" transform="translate(195,125)"/>
<path d="M0 0 C0.66 0.33 1.32 0.66 2 1 C1.31267043 3.74931827 0.64439778 5.53418821 -1.69140625 7.22265625 C-3.43116325 8.20324656 -5.2137611 9.10688055 -7 10 C-5.33248852 6.05860922 -2.77289351 3.2107188 0 0 Z " fill="#E1EEC6" transform="translate(161,122)"/>
<path d="M0 0 C3.96 0 7.92 0 12 0 C12.33 1.32 12.66 2.64 13 4 C11.68 4 10.36 4 9 4 C9 3.01 9 2.02 9 1 C8.34 1 7.68 1 7 1 C6.67 1.66 6.34 2.32 6 3 C6 2.34 6 1.68 6 1 C4.02 1 2.04 1 0 1 C0 0.67 0 0.34 0 0 Z " fill="#96BE44" transform="translate(325,114)"/>
<path d="M0 0 C1.4370809 -0.05422947 2.87475462 -0.09289723 4.3125 -0.125 C5.11300781 -0.14820313 5.91351563 -0.17140625 6.73828125 -0.1953125 C9 0 9 0 12 2 C3.42857143 3.28571429 3.42857143 3.28571429 0 2 C0 1.34 0 0.68 0 0 Z " fill="#527A2E" transform="translate(235,218)"/>
<path d="M0 0 C0.33 0.99 0.66 1.98 1 3 C0.34 4.32 -0.32 5.64 -1 7 C-3.97 7 -6.94 7 -10 7 C-10 6.67 -10 6.34 -10 6 C-7.36 6 -4.72 6 -2 6 C-2.33 4.35 -2.66 2.7 -3 1 C-2.01 0.67 -1.02 0.34 0 0 Z " fill="#6A8535" transform="translate(420,149)"/>
<path d="M0 0 C2.97 0 5.94 0 9 0 C9 0.99 9 1.98 9 3 C9.66 3.33 10.32 3.66 11 4 C8.69 3.67 6.38 3.34 4 3 C4 2.34 4 1.68 4 1 C2.68 0.67 1.36 0.34 0 0 Z " fill="#96BC44" transform="translate(362,114)"/>
<path d="M0 0 C0.53625 0.226875 1.0725 0.45375 1.625 0.6875 C0.965 0.6875 0.305 0.6875 -0.375 0.6875 C-0.705 1.6775 -1.035 2.6675 -1.375 3.6875 C-3.75 4.3125 -3.75 4.3125 -6.375 4.6875 C-7.035 4.0275 -7.695 3.3675 -8.375 2.6875 C-2.95961538 -0.38942308 -2.95961538 -0.38942308 0 0 Z " fill="#596F28" transform="translate(141.375,101.3125)"/>
<path d="M0 0 C3.3 0 6.6 0 10 0 C7.09907498 1.93395001 6.10325263 2.30131941 2.8125 2.625 C1.554375 2.74875 0.29625 2.8725 -1 3 C-0.67 2.01 -0.34 1.02 0 0 Z " fill="#3C5924" transform="translate(229,221)"/>
<path d="M0 0 C1.8871875 0.0309375 1.8871875 0.0309375 3.8125 0.0625 C3.8125 0.7225 3.8125 1.3825 3.8125 2.0625 C-3.8125 3.3125 -3.8125 3.3125 -7.1875 1.0625 C-4.43671116 0.14557039 -2.82801087 -0.04636083 0 0 Z " fill="#769136" transform="translate(170.1875,92.9375)"/>
<path d="M0 0 C0.33 0 0.66 0 1 0 C1.144375 1.2375 1.28875 2.475 1.4375 3.75 C1.78688502 6.56504499 2.20379366 9.2701497 3 12 C2.34 12 1.68 12 1 12 C0.67 12.66 0.34 13.32 0 14 C-1.39151652 9.20699867 -0.68662689 4.84864218 0 0 Z " fill="#658729" transform="translate(202,74)"/>
<path d="M0 0 C1.485 0.99 1.485 0.99 3 2 C2.88601335 3.62580966 2.75844341 5.25067157 2.625 6.875 C2.52058594 8.23238281 2.52058594 8.23238281 2.4140625 9.6171875 C2 12 2 12 0 14 C0 9.38 0 4.76 0 0 Z " fill="#82A143" transform="translate(422,130)"/>
<path d="M0 0 C0.66 0.33 1.32 0.66 2 1 C1.01 2.485 1.01 2.485 0 4 C-0.38499891 5.65549531 -0.72793135 7.3222433 -1 9 C-1.99 9 -2.98 9 -4 9 C-3.46930939 5.17902761 -2.50298434 2.93828597 0 0 Z " fill="#4D5F25" transform="translate(354,117)"/>
<path d="M0 0 C2.31 0 4.62 0 7 0 C7.66 1.32 8.32 2.64 9 4 C7.68 4 6.36 4 5 4 C4.67 3.34 4.34 2.68 4 2 C1.98330173 0.86649466 1.98330173 0.86649466 0 0 Z " fill="#95B849" transform="translate(198,63)"/>
<path d="M0 0 C0.99 0.33 1.98 0.66 3 1 C3.33 1.99 3.66 2.98 4 4 C3.34 4 2.68 4 2 4 C2 5.98 2 7.96 2 10 C-0.09350689 6.5980513 -0.17942163 3.94727588 0 0 Z " fill="#7B9E34" transform="translate(200,64)"/>
<path d="M0 0 C3.91402949 1.26941497 5.79072873 2.51167694 8 6 C6.35 6 4.7 6 3 6 C2.67 4.68 2.34 3.36 2 2 C1.34 2 0.68 2 0 2 C0 1.34 0 0.68 0 0 Z " fill="#EAF5D3" transform="translate(174,150)"/>
<path d="M0 0 C1.53445094 3.06890187 0.54984289 5.70094266 0 9 C-0.99 8.34 -1.98 7.68 -3 7 C-3.375 4.5 -3.375 4.5 -3 2 C-2.01 1.34 -1.02 0.68 0 0 Z " fill="#9ABB50" transform="translate(172,137)"/>
<path d="M0 0 C1.65 0 3.3 0 5 0 C5 0.66 5 1.32 5 2 C4.34 2 3.68 2 3 2 C2.67 3.32 2.34 4.64 2 6 C1.34 5.67 0.68 5.34 0 5 C0 3.35 0 1.7 0 0 Z " fill="#94B646" transform="translate(314,143)"/>
<path d="M0 0 C1.485 0.99 1.485 0.99 3 2 C2.67 3.65 2.34 5.3 2 7 C1.01 6.67 0.02 6.34 -1 6 C-0.67 4.02 -0.34 2.04 0 0 Z " fill="#92C13A" transform="translate(315,137)"/>
<path d="M0 0 C1.96301592 3.50538557 2.95902388 7.13351728 4 11 C3.34 10.67 2.68 10.34 2 10 C2 9.34 2 8.68 2 8 C1.34 8 0.68 8 0 8 C0 5.36 0 2.72 0 0 Z " fill="#76963D" transform="translate(413,121)"/>
<path d="M0 0 C0.66 0.33 1.32 0.66 2 1 C-0.75 6.875 -0.75 6.875 -3 8 C-2.45276317 4.62537285 -1.9451 2.91765 0 0 Z " fill="#637935" transform="translate(317,117)"/>
<path d="M0 0 C1.65 0 3.3 0 5 0 C5 0.66 5 1.32 5 2 C4.34 2 3.68 2 3 2 C2.34 3.32 1.68 4.64 1 6 C0.34 5.01 -0.32 4.02 -1 3 C-0.67 2.01 -0.34 1.02 0 0 Z " fill="#7EA532" transform="translate(371,115)"/>
<path d="M0 0 C3.96 1.98 3.96 1.98 8 4 C8 4.33 8 4.66 8 5 C6.35 5 4.7 5 3 5 C2.67 4.01 2.34 3.02 2 2 C1.34 2 0.68 2 0 2 C0 1.34 0 0.68 0 0 Z " fill="#A8C66C" transform="translate(145,194)"/>
<path d="M0 0 C0.99 0.33 1.98 0.66 3 1 C0.03 3.475 0.03 3.475 -3 6 C-3.33 5.01 -3.66 4.02 -4 3 C-2.68 2.67 -1.36 2.34 0 2 C0 1.34 0 0.68 0 0 Z " fill="#EBF7D5" transform="translate(183,192)"/>
<path d="M0 0 C0.928125 1.175625 0.928125 1.175625 1.875 2.375 C3.89858661 4.96837647 3.89858661 4.96837647 6 7 C3.625 6.8125 3.625 6.8125 1 6 C-0.3125 3.4375 -0.3125 3.4375 -1 1 C-0.67 0.67 -0.34 0.34 0 0 Z " fill="#516829" transform="translate(328,140)"/>
<path d="M0 0 C0.99 0.66 1.98 1.32 3 2 C2.01 2 1.02 2 0 2 C-0.12375 2.61875 -0.2475 3.2375 -0.375 3.875 C-1 6 -1 6 -3 8 C-2.74438677 5.6568787 -2.40729228 3.32156597 -2 1 C-1.34 0.67 -0.68 0.34 0 0 Z " fill="#54672C" transform="translate(425,113)"/>
</svg>
